# xmcd
#
# Track frame offsets: 
#        150
#        25295
#        45362
#        72470
#        100337
#        118117
#        139172
#        152705
#        175927
#        192780
#
# Disc length: 3135 seconds
#
# Revision: 4
# Processed by: cddbd v1.5.2PL0 Copyright (c) Steve Scherf et al.
# Submitted via: ExactAudioCopy v0.95b4
#
DISCID=870c3d0a
DTITLE=Various Artist - Inner City Blues: The Music of Marvin Gaye
DYEAR=1995
DGENRE=R&B
TTITLE0=Nona Gaye - Inner City Blues (Make Me Wanna Holler)
TTITLE1=Bono - Save the Children
TTITLE2=Boyz II Men - Let's Get It On
TTITLE3=Madonna with Massive Attack - I Want You
TTITLE4=Neneh Cherry - Trouble Man
TTITLE5=Lisa Stansfield - Just to Keep You Satisfied
TTITLE6=Stevie Wonder - Stubborn Kind of Fellow
TTITLE7=Sounds of Blackness - God is Love_Mercy Mercy Me
TTITLE8=Speech - Like Marvin Gaye Said (What's Going On)
TTITLE9=Digable Planets - Marvin, You're the Man
EXTD=
EXTT0=
EXTT1=
EXTT2=
EXTT3=
EXTT4=
EXTT5=
EXTT6=
EXTT7=
EXTT8=
EXTT9=
PLAYORDER=
